<svg width="32" height="32" viewBox="0 0 32 32" fill="none" xmlns="http://www.w3.org/2000/svg">
    <path fill-rule="evenodd" clip-rule="evenodd" d="M7 3C5.89543 3 5 3.89543 5 5V16C5 16.5523 5.44772 17 6 17C6.55228 17 7 16.5523 7 16V5L18 5V11C18 11.5523 18.4477 12 19 12H25V16C25 16.5523 25.4477 17 26 17C26.5523 17 27 16.5523 27 16V11.4142C27 10.8838 26.7893 10.3751 26.4142 10L20 3.58579C19.6249 3.21071 19.1162 3 18.5858 3H7ZM23.5858 10L20 6.41421V10H23.5858Z" fill="white"/>
    <path d="M11.7495 22.645C11.7495 23.5223 11.4899 24.2008 10.9707 24.6807C10.4551 25.1569 9.72103 25.395 8.76855 25.395H8.17236V28H6.05078V20.1475H8.76855C9.76042 20.1475 10.5052 20.3641 11.0029 20.7974C11.5007 21.2306 11.7495 21.8465 11.7495 22.645ZM8.17236 23.6655H8.55908C8.87777 23.6655 9.13021 23.576 9.31641 23.397C9.50618 23.2179 9.60107 22.9709 9.60107 22.6558C9.60107 22.1258 9.30745 21.8608 8.72021 21.8608H8.17236V23.6655Z" fill="white"/>
    <path d="M19.7997 22.645C19.7997 23.5223 19.5401 24.2008 19.0209 24.6807C18.5053 25.1569 17.7712 25.395 16.8188 25.395H16.2226V28H14.101V20.1475H16.8188C17.8106 20.1475 18.5554 20.3641 19.0531 20.7974C19.5508 21.2306 19.7997 21.8465 19.7997 22.645ZM16.2226 23.6655H16.6093C16.928 23.6655 17.1804 23.576 17.3666 23.397C17.5564 23.2179 17.6513 22.9709 17.6513 22.6558C17.6513 22.1258 17.3576 21.8608 16.7704 21.8608H16.2226V23.6655Z" fill="white"/>
    <path d="M25.6155 28H23.4939V21.8823H21.5765V20.1475H27.5276V21.8823H25.6155V28Z" fill="white"/>
</svg>
    