<svg fill="none" height="235" viewBox="0 0 258 235" width="258" xmlns="http://www.w3.org/2000/svg"><path d="m226.895 0c-43.068 43.1632-92.117 101.913-92.117 166.658 0 49.158 29.908 68.342 57.424 68.342 33.497 0 59.816-26.378 59.816-58.75 0-29.975-21.534-53.954-49.049-57.551 5.981-31.1735 28.712-61.148 55.031-87.5256zm-133.5809 0c-44.2644 43.1632-93.3141 101.913-93.3141 166.658 0 49.158 31.1047 68.342 58.6204 68.342 33.4974 0 58.6206-26.378 58.6206-58.75 0-29.975-20.3379-53.954-49.0499-57.551 5.9816-31.1735 28.712-61.148 56.2279-87.5256z" fill="#f8f4ee"/></svg>