<svg fill="none" height="24" viewBox="0 0 24 24" width="24" xmlns="http://www.w3.org/2000/svg"><path d="m12 16-1.4-1.4 1.6-1.6h-4.2v-2h4.2l-1.6-1.6 1.4-1.4 4 4zm0 6c1.3833 0 2.6833-.2627 3.9-.788 1.2167-.5247 2.275-1.237 3.175-2.137s1.6123-1.9583 2.137-3.175c.5253-1.2167.788-2.5167.788-3.9s-.2627-2.68333-.788-3.9c-.5247-1.21667-1.237-2.275-2.137-3.175s-1.9583-1.61267-3.175-2.138c-1.2167-.52467-2.5167-.787-3.9-.787s-2.68333.26233-3.9.787c-1.21667.52533-2.275 1.238-3.175 2.138s-1.61233 1.95833-2.137 3.175c-.52533 1.21667-.788 2.5167-.788 3.9s.26267 2.6833.788 3.9c.52467 1.2167 1.237 2.275 2.137 3.175s1.95833 1.6123 3.175 2.137c1.21667.5253 2.5167.788 3.9.788zm0-2c-2.23333 0-4.125-.775-5.675-2.325s-2.325-3.4417-2.325-5.675c0-2.23333.775-4.125 2.325-5.675s3.44167-2.325 5.675-2.325c2.2333 0 4.125.775 5.675 2.325s2.325 3.44167 2.325 5.675c0 2.2333-.775 4.125-2.325 5.675s-3.4417 2.325-5.675 2.325z" fill="#002145"/></svg>