<svg fill="none" height="24" viewBox="0 0 43 24" width="43" xmlns="http://www.w3.org/2000/svg"><g fill="#fff"><path d="m27.5 22.1878c4.7305 0 5.3612 1.8322 9.1667 1.812 3.7844.0202 4.4361-1.812 9.1666-1.812s5.3823 1.8322 9.1667 1.812v-4.2079c-3.7844.0201-4.4362-1.7919-9.1667-1.7919s-5.3612 1.812-9.1666 1.7919c-3.8055.0201-4.4362-1.7919-9.1667-1.7919s-5.3612 1.812-9.1667 1.7919c-3.7844.0201-4.4361-1.7919-9.16663-1.7919-4.73051 0-5.38227 1.812-9.16667 1.7919v4.2079c3.7844.0202 4.43616-1.812 9.16667-1.812 4.73053 0 5.36123 1.8322 9.16663 1.812 3.8055.0202 4.4362-1.812 9.1667-1.812z"/><path d="m27.5 13.1878c4.7305 0 5.3612 1.8322 9.1667 1.812 3.7844.0202 4.4361-1.812 9.1666-1.812s5.3823 1.8322 9.1667 1.812v-4.2079c-3.7844.0201-4.4362-1.7919-9.1667-1.7919s-5.3612 1.812-9.1666 1.7919c-3.8055.0201-4.4362-1.7919-9.1667-1.7919s-5.3612 1.812-9.1667 1.7919c-3.7844.0201-4.4361-1.7919-9.16663-1.7919-4.73051 0-5.38227 1.812-9.16667 1.7919v4.2079c3.7844.0202 4.43616-1.812 9.16667-1.812 4.73053 0 5.36123 1.8322 9.16663 1.812 3.8055.0202 4.4362-1.812 9.1667-1.812z"/><path d="m27.5 4.1878c4.7305 0 5.3612 1.83217 9.1667 1.81204 3.7844.02013 4.4361-1.81204 9.1666-1.81204s5.3823 1.83217 9.1667 1.81204v-4.20794c-3.7844.02013-4.4362-1.7919-9.1667-1.7919s-5.3612 1.81203-9.1666 1.7919c-3.8055.02013-4.4362-1.7919-9.1667-1.7919s-5.3612 1.81203-9.1667 1.7919c-3.7844.02013-4.4361-1.7919-9.16663-1.7919-4.73051 0-5.38227 1.81203-9.16667 1.7919v4.20794c3.7844.02013 4.43616-1.81204 9.16667-1.81204 4.73053 0 5.36123 1.83217 9.16663 1.81204 3.8055.02013 4.4362-1.81204 9.1667-1.81204z"/></g></svg>