<svg fill="none" height="74" viewBox="0 0 20 74" width="20" xmlns="http://www.w3.org/2000/svg"><path d="m.260678 71.8751c-.068954.4085.206247.7955.614681.8644l6.655811 1.1237c.40844.069.79544-.2062.86439-.6147.06895-.4084-.20625-.7954-.61468-.8644l-5.91628-.9988.99883-5.9163c.06895-.4084-.20625-.7954-.61469-.8643-.40843-.069-.79543.2062-.86438.6146zm6.887062-70.32959c7.19486 6.78854 11.13836 20.27879 10.43626 34.16659-.7011 13.8656-6.0212 27.8563-17.018432 35.6767l.869292 1.2224c11.50254-8.1796 16.93254-22.6889 17.64724-36.8233.7135-14.1122-3.2618-28.12195-10.90496-35.333412z" fill="#b55a18"/></svg>