<svg fill="none" height="37" viewBox="0 0 307 37" width="307" xmlns="http://www.w3.org/2000/svg"><path d="m306.664 25.4688c.193-.3664.052-.82-.314-1.0131l-5.973-3.1458c-.366-.1931-.82-.0525-1.013.314s-.052.8201.314 1.0131l5.309 2.7963-2.796 5.3086c-.193.3665-.053.82.314 1.0131.366.193.82.0524 1.013-.314zm-305.41021-12.8825c58.64841-21.09025 101.30621-7.5155 146.14121 6.2618 44.861 13.7853 91.848 27.7491 158.827 6.9876l-.444-1.4328c-66.521 20.6193-113.131 6.7816-157.943-6.9886-44.838-13.77822-87.9303-27.5132-147.088793-6.2395z" fill="#b55a18"/></svg>