<svg fill="none" height="16" viewBox="0 0 32 16" width="32" xmlns="http://www.w3.org/2000/svg"><path d="m23.3 15.3c-.1833-.1833-.2793-.4166-.288-.7-.0087-.2833.079-.5166.263-.7l4.9-4.89995h-27.175c-.28333 0-.520996-.096-.712996-.288-.1920004-.192-.28766721-.42933-.28700054-.712 0-.28333.09600014-.521.28800054-.713.192-.192.429333-.28767.711996-.287h27.175l-4.9-4.9c-.1833-.18333-.271-.41667-.263-.7s.104-.516668.288-.700002c.1833-.183333.4167-.274999.7-.274999s.5167.091666.7.274999l6.6 6.600002c.1.08333.171.18767.213.313s.0627.25433.062.387c0 .13333-.0207.25833-.062.375s-.1123.225-.213.325l-6.6 6.59995c-.1833.1834-.4167.275-.7.275s-.5167-.0916-.7-.275z" fill="#3f261a"/></svg>