<svg fill="none" height="32" viewBox="0 0 32 32" width="32" xmlns="http://www.w3.org/2000/svg"><path d="m6 17c.26522 0 .51957-.1053.70711-.2929.18753-.1875.29289-.4419.29289-.7071v-10.99998h11v5.99998c0 .2652.1054.5196.2929.7071.1875.1876.4419.2929.7071.2929h6v4c0 .2652.1054.5196.2929.7071.1875.1876.4419.2929.7071.2929s.5196-.1053.7071-.2929c.1875-.1875.2929-.4419.2929-.7071v-5c.002-.133-.0237-.265-.0753-.3877-.0517-.1226-.1282-.2332-.2247-.3248l-6.9875-6.99998c-.1905-.18573-.4465-.289-.7125-.2875h-12c-.53043 0-1.03914.21071-1.41421.58578-.37508.37508-.58579.88378-.58579 1.41422v10.99998c0 .2652.10536.5196.29289.7071.18754.1876.44189.2929.70711.2929zm14-10.58748 3.5875 3.58748h-3.5875zm-12 13.58748h-2c-.26522 0-.51957.1054-.70711.2929-.18753.1875-.29289.4419-.29289.7071v6c0 .2652.10536.5196.29289.7071.18754.1876.44189.2929.70711.2929s.51957-.1053.70711-.2929c.18753-.1875.29289-.4419.29289-.7071v-1h1c.79565 0 1.55871-.3161 2.1213-.8787.5626-.5626.8787-1.3256.8787-2.1213 0-.7956-.3161-1.5587-.8787-2.1213-.56259-.5626-1.32565-.8787-2.1213-.8787zm0 4h-1v-2h1c.26522 0 .51957.1054.70711.2929.18753.1875.29289.4419.29289.7071s-.10536.5196-.29289.7071c-.18754.1876-.44189.2929-.70711.2929zm16.5-2v1.5h2c.2652 0 .5196.1054.7071.2929s.2929.4419.2929.7071-.1054.5196-.2929.7071c-.1875.1876-.4419.2929-.7071.2929h-2v1.5c0 .2652-.1054.5196-.2929.7071-.1875.1876-.4419.2929-.7071.2929s-.5196-.1053-.7071-.2929c-.1875-.1875-.2929-.4419-.2929-.7071v-6c0-.2652.1054-.5196.2929-.7071s.4419-.2929.7071-.2929h3.5c.2652 0 .5196.1054.7071.2929s.2929.4419.2929.7071-.1054.5196-.2929.7071c-.1875.1876-.4419.2929-.7071.2929zm-8.5-2h-1.75c-.2652 0-.5196.1054-.7071.2929s-.2929.4419-.2929.7071v6c0 .2652.1054.5196.2929.7071.1875.1876.4419.2929.7071.2929h1.75c1.0609 0 2.0783-.4214 2.8284-1.1716.7502-.7501 1.1716-1.7675 1.1716-2.8284s-.4214-2.0783-1.1716-2.8284c-.7501-.7502-1.7675-1.1716-2.8284-1.1716zm0 6h-.75v-4h.75c.5304 0 1.0391.2107 1.4142.5858s.5858.8838.5858 1.4142-.2107 1.0392-.5858 1.4142c-.3751.3751-.8838.5858-1.4142.5858z" fill="#002145"/></svg>