<svg fill="none" height="4" viewBox="0 0 30 4" width="30" xmlns="http://www.w3.org/2000/svg"><path d="m15 2.79187c2.5803 0 2.9243 1.22144 5 1.20802 2.0642.01342 2.4197-1.20802 5-1.20802s2.9358 1.22144 5 1.20802v-2.80529c-2.0642.01342-2.4197-1.1946-5-1.1946s-2.9243 1.20802-5 1.1946c-2.0757.01342-2.4197-1.1946-5-1.1946s-2.9243 1.20802-5 1.1946c-2.06422.01342-2.41972-1.1946-5-1.1946s-2.93578 1.20802-5 1.1946v2.80529c2.06422.01342 2.41972-1.20802 5-1.20802s2.92431 1.22144 5 1.20802c2.0757.01342 2.4197-1.20802 5-1.20802z" fill="#b55a18"/></svg>